<svg xmlns="http://www.w3.org/2000/svg" enable-background="new 0 0 32 32" viewBox="0 0 32 32" id="shopping-cart">
  <path d="M29,25H4c-0.551,0-1-0.449-1-1s0.449-1,1-1h1h3h19c0.472,0,0.879-0.33,0.978-0.791l3-14c0.063-0.295-0.011-0.604-0.2-0.838C30.588,7.136,30.302,7,30,7H6V4c0-1.654-1.346-3-3-3H2C1.448,1,1,1.448,1,2s0.448,1,1,1h1c0.551,0,1,0.449,1,1v4v13c-1.654,0-3,1.346-3,3s1.346,3,3,3h2.184C6.072,27.314,6,27.648,6,28c0,1.654,1.346,3,3,3s3-1.346,3-3c0-0.352-0.072-0.686-0.184-1h9.369C21.072,27.314,21,27.648,21,28c0,1.654,1.346,3,3,3s3-1.346,3-3c0-0.352-0.072-0.686-0.184-1H29c0.552,0,1-0.448,1-1S29.552,25,29,25z M6,9h22.763l-2.572,12H8H6V9z M10,28c0,0.551-0.449,1-1,1s-1-0.449-1-1s0.449-1,1-1S10,27.449,10,28z M25,28c0,0.551-0.449,1-1,1s-1-0.449-1-1s0.449-1,1-1S25,27.449,25,28z"></path>
</svg>
